<?xml version="1.0"?>
<svg xmlns="http://www.w3.org/2000/svg" xmlnsXlink="http://www.w3.org/1999/xlink" xmlnsSvgjs="http://svgjs.com/svgjs" version="1.1" height="512" x="0" y="0" viewBox="0 0 60 60" style="enable-background:new 0 0 512 512" xmlSpace="preserve" class=""><g><path xmlns="http://www.w3.org/2000/svg" d="M53.024,31.144a2.363,2.363,0,0,0-4.046,0L48,32.758V6a6.006,6.006,0,0,0-6-6H6A6.02,6.02,0,0,0,0,6v4a1,1,0,0,0,1,1h9V50a3,3,0,0,0,3,3H45a2.968,2.968,0,0,0,1.13-.236l2.725,5.869A2.342,2.342,0,0,0,51,60h0a2.336,2.336,0,0,0,2.141-1.364l6.638-14.3a2.34,2.34,0,0,0-.12-2.2Zm4.648,11.567L52,46.686V33.317ZM50,33.316V46.685l-5.672-3.973ZM10,9H2V6A4.018,4.018,0,0,1,6.01,2a2.6,2.6,0,0,1,.385.015A4.151,4.151,0,0,1,10,6.21ZM45,51H13a1,1,0,0,1-1-1V6.21A6.355,6.355,0,0,0,10.4,2H42a4,4,0,0,1,4,4V36.072L42.338,42.14a2.342,2.342,0,0,0-.119,2.2h0l3.063,6.6A.963.963,0,0,1,45,51Zm6.328,6.794A.342.342,0,0,1,51,58a.349.349,0,0,1-.332-.209L45.031,45.647,49.679,48.9A2.25,2.25,0,0,0,51,49.334a2.225,2.225,0,0,0,1.3-.421l4.66-3.265Z" fill="#FFFFFF" data-original="#000000" class=""/><path xmlns="http://www.w3.org/2000/svg" d="M38,42H35.816A2.966,2.966,0,0,0,36,41V40a3,3,0,0,0-6,0v1a2.966,2.966,0,0,0,.184,1H27.816A2.966,2.966,0,0,0,28,41V39a3,3,0,0,0-6,0v2a2.966,2.966,0,0,0,.184,1H20a1,1,0,0,0,0,2H38a1,1,0,0,0,0-2Zm-6-1V40a1,1,0,0,1,2,0v1a1,1,0,0,1-2,0Zm-8,0V39a1,1,0,0,1,2,0v2a1,1,0,0,1-2,0Z" fill="#FFFFFF" data-original="#000000" class=""/><path xmlns="http://www.w3.org/2000/svg" d="M43,28a1,1,0,0,0-1-1H16a1,1,0,0,0,0,2H42A1,1,0,0,0,43,28Z" fill="#FFFFFF" data-original="#000000" class=""/><path xmlns="http://www.w3.org/2000/svg" d="M16,24H42a1,1,0,0,0,0-2H16a1,1,0,0,0,0,2Z" fill="#FFFFFF" data-original="#000000" class=""/><path xmlns="http://www.w3.org/2000/svg" d="M16,19H42a1,1,0,0,0,0-2H16a1,1,0,0,0,0,2Z" fill="#FFFFFF" data-original="#000000" class=""/><path xmlns="http://www.w3.org/2000/svg" d="M23,12H35a1,1,0,0,0,0-2H23a1,1,0,0,0,0,2Z" fill="#FFFFFF" data-original="#000000" class=""/></g></svg>
